{
  "accessors": [
    {
      "bufferView": 2,
      "componentType": 5126,
      "count": 5482,
      "max": [
        1.0186327695846558,
        1.3556379079818726,
        1.0139843225479126
      ],
      "min": [
        -1.0186327695846558,
        -0.573275625705719,
        -1.0033732652664185
      ],
      "type": "VEC3"
    },
    {
      "bufferView": 2,
      "byteOffset": 65784,
      "componentType": 5126,
      "count": 5482,
      "max": [
        0.9995971918106079,
        0.9974381327629089,
        0.9999151229858398
      ],
      "min": [
        -0.9995971918106079,
        -0.9999924898147583,
        -0.9999992847442627
      ],
      "type": "VEC3"
    },
    {
      "bufferView": 1,
      "componentType": 5126,
      "count": 5482,
      "max": [
        0.7500002980232239,
        0.6250001788139343
      ],
      "min": [
        -0.06297527253627777,
        -0.05366681516170502
      ],
      "type": "VEC2"
    },
    {
      "bufferView": 0,
      "componentType": 5125,
      "count": 28884,
      "type": "SCALAR"
    },
    {
      "bufferView": 2,
      "byteOffset": 131568,
      "componentType": 5126,
      "count": 120,
      "max": [
        0.5010183453559875,
        -0.13010266423225403,
        0.9261406660079956
      ],
      "min": [
        -0.5010183453559875,
        -0.3827000856399536,
        0.827366054058075
      ],
      "type": "VEC3"
    },
    {
      "bufferView": 2,
      "byteOffset": 133008,
      "componentType": 5126,
      "count": 120,
      "max": [
        0.9360059499740601,
        0.9350854754447937,
        0.996955394744873
      ],
      "min": [
        -0.9360059499740601,
        -0.9811921715736389,
        0.19141553342342377
      ],
      "type": "VEC3"
    },
    {
      "bufferView": 1,
      "byteOffset": 43856,
      "componentType": 5126,
      "count": 120,
      "max": [
        0.0,
        0.0
      ],
      "min": [
        0.0,
        0.0
      ],
      "type": "VEC2"
    },
    {
      "bufferView": 0,
      "byteOffset": 115536,
      "componentType": 5125,
      "count": 534,
      "type": "SCALAR"
    },
    {
      "bufferView": 2,
      "byteOffset": 134448,
      "componentType": 5126,
      "count": 512,
      "max": [
        0.4066697955131531,
        0.2167198359966278,
        0.9968029856681824
      ],
      "min": [
        -0.4066697955131531,
        -0.1472579836845398,
        0.9241583347320557
      ],
      "type": "VEC3"
    },
    {
      "bufferView": 2,
      "byteOffset": 140592,
      "componentType": 5126,
      "count": 512,
      "max": [
        0.39802786707878113,
        0.32661324739456177,
        0.9976177215576172
      ],
      "min": [
        -0.39802786707878113,
        -0.17850792407989502,
        0.9113541841506958
      ],
      "type": "VEC3"
    },
    {
      "bufferView": 1,
      "byteOffset": 44816,
      "componentType": 5126,
      "count": 512,
      "max": [
        0.0767902210354805,
        0.057319317013025284
      ],
      "min": [
        0.00032092840410768986,
        0.00023488892475143075
      ],
      "type": "VEC2"
    },
    {
      "bufferView": 0,
      "byteOffset": 117672,
      "componentType": 5125,
      "count": 1536,
      "type": "SCALAR"
    },
    {
      "bufferView": 2,
      "byteOffset": 146736,
      "componentType": 5126,
      "count": 384,
      "max": [
        0.41673219203948975,
        0.22690843045711517,
        0.9988100528717041
      ],
      "min": [
        -0.41673219203948975,
        -0.15744489431381226,
        0.9221000671386719
      ],
      "type": "VEC3"
    },
    {
      "bufferView": 2,
      "byteOffset": 151344,
      "componentType": 5126,
      "count": 384,
      "max": [
        0.39802786707878113,
        0.32661324739456177,
        0.9961931109428406
      ],
      "min": [
        -0.39802786707878113,
        -0.17850792407989502,
        0.9113541841506958
      ],
      "type": "VEC3"
    },
    {
      "bufferView": 1,
      "byteOffset": 48912,
      "componentType": 5126,
      "count": 384,
      "max": [
        0.08209067583084106,
        0.06128297746181488
      ],
      "min": [
        0.0,
        0.0
      ],
      "type": "VEC2"
    },
    {
      "bufferView": 0,
      "byteOffset": 123816,
      "componentType": 5125,
      "count": 1140,
      "type": "SCALAR"
    },
    {
      "bufferView": 2,
      "byteOffset": 155952,
      "componentType": 5126,
      "count": 5316,
      "max": [
        1.0478613376617432,
        1.384803295135498,
        1.035279631614685
      ],
      "min": [
        -1.0478613376617432,
        -0.602515697479248,
        -1.035279631614685
      ],
      "type": "VEC3"
    },
    {
      "bufferView": 2,
      "byteOffset": 219744,
      "componentType": 5126,
      "count": 5316,
      "max": [
        0.9995937347412109,
        1.0,
        0.9999991655349731
      ],
      "min": [
        -0.9995937347412109,
        -0.9973117113113403,
        -0.9997518062591553
      ],
      "type": "VEC3"
    },
    {
      "bufferView": 1,
      "byteOffset": 51984,
      "componentType": 5126,
      "count": 5316,
      "max": [
        0.7500002980232239,
        0.6250001788139343
      ],
      "min": [
        0.0,
        0.0
      ],
      "type": "VEC2"
    },
    {
      "bufferView": 0,
      "byteOffset": 128376,
      "componentType": 5125,
      "count": 27528,
      "type": "SCALAR"
    }
  ],
  "asset": {
    "extras": {
      "author": "Edgenheiden (https://sketchfab.com/Edgenheiden)",
      "license": "CC-BY-NC-4.0 (http://creativecommons.org/licenses/by-nc/4.0/)",
      "source": "https://sketchfab.com/3d-models/dragon-quest-slime-5d2e973f9d3e408c8c36a6ab4ef475d5",
      "title": "Dragon Quest Slime"
    },
    "generator": "Sketchfab-12.68.0",
    "version": "2.0"
  },
  "bufferViews": [
    {
      "buffer": 0,
      "byteLength": 238488,
      "name": "floatBufferViews",
      "target": 34963
    },
    {
      "buffer": 0,
      "byteLength": 94512,
      "byteOffset": 238488,
      "byteStride": 8,
      "name": "floatBufferViews",
      "target": 34962
    },
    {
      "buffer": 0,
      "byteLength": 283536,
      "byteOffset": 333000,
      "byteStride": 12,
      "name": "floatBufferViews",
      "target": 34962
    }
  ],
  "buffers": [
    {
      "byteLength": 616536,
      "uri": "scene.bin"
    }
  ],
  "extensionsRequired": [
    "KHR_materials_pbrSpecularGlossiness"
  ],
  "extensionsUsed": [
    "KHR_materials_pbrSpecularGlossiness"
  ],
  "materials": [
    {
      "doubleSided": true,
      "extensions": {
        "KHR_materials_pbrSpecularGlossiness": {
          "diffuseFactor": [
            0.020742511621608107,
            0.14824906683282932,
            1.0,
            1.0
          ],
          "glossinessFactor": 0.5,
          "specularFactor": [
            0.0,
            0.0,
            0.0
          ]
        }
      },
      "name": "Material.003"
    },
    {
      "doubleSided": true,
      "emissiveFactor": [
        0.0173825,
        0.00148541,
        0.0
      ],
      "extensions": {
        "KHR_materials_pbrSpecularGlossiness": {
          "diffuseFactor": [
            1.0,
            0.0907669,
            0.0980769,
            1.0
          ],
          "glossinessFactor": 0.6,
          "specularFactor": [
            0.0,
            0.0,
            0.0
          ]
        }
      },
      "name": "Material.001"
    },
    {
      "doubleSided": true,
      "extensions": {
        "KHR_materials_pbrSpecularGlossiness": {
          "diffuseFactor": [
            1.0,
            1.0,
            1.0,
            1.0
          ],
          "glossinessFactor": 0.75,
          "specularFactor": [
            0.0,
            0.0,
            0.0
          ]
        }
      },
      "name": "Material.002"
    },
    {
      "doubleSided": true,
      "extensions": {
        "KHR_materials_pbrSpecularGlossiness": {
          "diffuseFactor": [
            0.0,
            0.0,
            0.0,
            1.0
          ],
          "glossinessFactor": 0.0,
          "specularFactor": [
            0.0,
            0.0,
            0.0
          ]
        }
      },
      "name": "Material.004"
    },
    {
      "extensions": {
        "KHR_materials_pbrSpecularGlossiness": {
          "diffuseFactor": [
            0.0,
            0.0,
            0.0,
            1.0
          ],
          "glossinessFactor": 0.0,
          "specularFactor": [
            0.0,
            0.0,
            0.0
          ]
        }
      },
      "name": "Material.005"
    }
  ],
  "meshes": [
    {
      "name": "Object_0",
      "primitives": [
        {
          "attributes": {
            "NORMAL": 1,
            "POSITION": 0,
            "TEXCOORD_0": 2
          },
          "indices": 3,
          "material": 0,
          "mode": 4
        }
      ]
    },
    {
      "name": "Object_1",
      "primitives": [
        {
          "attributes": {
            "NORMAL": 5,
            "POSITION": 4,
            "TEXCOORD_0": 6
          },
          "indices": 7,
          "material": 1,
          "mode": 4
        }
      ]
    },
    {
      "name": "Object_2",
      "primitives": [
        {
          "attributes": {
            "NORMAL": 9,
            "POSITION": 8,
            "TEXCOORD_0": 10
          },
          "indices": 11,
          "material": 2,
          "mode": 4
        }
      ]
    },
    {
      "name": "Object_3",
      "primitives": [
        {
          "attributes": {
            "NORMAL": 13,
            "POSITION": 12,
            "TEXCOORD_0": 14
          },
          "indices": 15,
          "material": 3,
          "mode": 4
        }
      ]
    },
    {
      "name": "Object_4",
      "primitives": [
        {
          "attributes": {
            "NORMAL": 17,
            "POSITION": 16,
            "TEXCOORD_0": 18
          },
          "indices": 19,
          "material": 4,
          "mode": 4
        }
      ]
    }
  ],
  "nodes": [
    {
      "children": [
        1
      ],
      "matrix": [
        1.0,
        0.0,
        0.0,
        0.0,
        0.0,
        2.220446049250313e-16,
        -1.0,
        0.0,
        0.0,
        1.0,
        2.220446049250313e-16,
        0.0,
        0.0,
        0.0,
        0.0,
        1.0
      ],
      "name": "Sketchfab_model"
    },
    {
      "children": [
        2
      ],
      "name": "root"
    },
    {
      "children": [
        3,
        8
      ],
      "matrix": [
        1.0,
        0.0,
        0.0,
        0.0,
        0.0,
        2.220446049250313e-16,
        1.0,
        0.0,
        0.0,
        -1.0,
        2.220446049250313e-16,
        0.0,
        0.0,
        0.0,
        0.0,
        1.0
      ],
      "name": "GLTF_SceneRootNode"
    },
    {
      "children": [
        4,
        5,
        6,
        7
      ],
      "matrix": [
        1.0,
        0.0,
        0.0,
        0.0,
        0.0,
        1.0,
        0.0,
        0.0,
        0.0,
        0.0,
        1.0,
        0.0,
        0.0,
        -0.4000000059604645,
        0.0,
        1.0
      ],
      "name": "Base_4"
    },
    {
      "mesh": 0,
      "name": "Object_4"
    },
    {
      "mesh": 1,
      "name": "Object_5"
    },
    {
      "mesh": 2,
      "name": "Object_6"
    },
    {
      "mesh": 3,
      "name": "Object_7"
    },
    {
      "children": [
        9
      ],
      "matrix": [
        1.0,
        0.0,
        0.0,
        0.0,
        0.0,
        1.0,
        0.0,
        0.0,
        0.0,
        0.0,
        1.0,
        0.0,
        0.0,
        -0.4000000059604645,
        0.0,
        1.0
      ],
      "name": "Outline_5"
    },
    {
      "mesh": 4,
      "name": "Object_9"
    }
  ],
  "scene": 0,
  "scenes": [
    {
      "name": "Sketchfab_Scene",
      "nodes": [
        0
      ]
    }
  ]
}
